<?xml version="1.0" encoding="UTF-8" standalone="no"?>
<!-- Created with Inkscape (http://www.inkscape.org/) -->

<svg
   version="1.1"
   id="svg2"
   width="717.38666"
   height="104"
   viewBox="0 0 717.38666 104"
   sodipodi:docname="Logo_Infoma_rgb_Axians Inline Colour.eps"
   xmlns:inkscape="http://www.inkscape.org/namespaces/inkscape"
   xmlns:sodipodi="http://sodipodi.sourceforge.net/DTD/sodipodi-0.dtd"
   xmlns="http://www.w3.org/2000/svg"
   xmlns:svg="http://www.w3.org/2000/svg">
  <defs
     id="defs6">
    <clipPath
       clipPathUnits="userSpaceOnUse"
       id="clipPath30">
      <path
         d="m 725.125,497.539 c 58.293,-57.809 89.699,-100.441 90.059,-100.934 -0.629,-0.863 -95.621,-130.277 -265.411,-245.48 34.579,-30.664 76.872,-63.8008 126.563,-94.5039 10.855,-6.707 22.176,-12.8867 33.84,-18.5781 163.746,-79.9258 354.334,44.1914 354.334,226.402 0,176.696 -179.213,298.739 -339.385,233.094 z"
         id="path28" />
    </clipPath>
    <linearGradient
       x1="0"
       y1="0"
       x2="1"
       y2="0"
       gradientUnits="userSpaceOnUse"
       gradientTransform="matrix(514.738,0,0,-514.738,549.772,264.438)"
       spreadMethod="pad"
       id="linearGradient40">
      <stop
         style="stop-opacity:1;stop-color:#ed1764"
         offset="0"
         id="stop32" />
      <stop
         style="stop-opacity:1;stop-color:#ed1764"
         offset="0.103051"
         id="stop34" />
      <stop
         style="stop-opacity:1;stop-color:#a41172"
         offset="0.893698"
         id="stop36" />
      <stop
         style="stop-opacity:1;stop-color:#a41172"
         offset="1"
         id="stop38" />
    </linearGradient>
    <clipPath
       clipPathUnits="userSpaceOnUse"
       id="clipPath50">
      <path
         d="m 903.672,604.047 c 0,48.871 -39.617,88.488 -88.488,88.488 -48.868,0 -88.485,-39.617 -88.485,-88.488 0,-48.867 39.617,-88.484 88.485,-88.484 48.871,0 88.488,39.617 88.488,88.484 z"
         id="path48" />
    </clipPath>
    <linearGradient
       x1="0"
       y1="0"
       x2="1"
       y2="0"
       gradientUnits="userSpaceOnUse"
       gradientTransform="matrix(176.972,0,0,176.972,726.699,604.047)"
       spreadMethod="pad"
       id="linearGradient60">
      <stop
         style="stop-opacity:1;stop-color:#ed1764"
         offset="0"
         id="stop52" />
      <stop
         style="stop-opacity:1;stop-color:#ed1764"
         offset="0.103051"
         id="stop54" />
      <stop
         style="stop-opacity:1;stop-color:#a41172"
         offset="0.893698"
         id="stop56" />
      <stop
         style="stop-opacity:1;stop-color:#a41172"
         offset="1"
         id="stop58" />
    </linearGradient>
    <clipPath
       clipPathUnits="userSpaceOnUse"
       id="clipPath70">
      <path
         d="m 549.77,151.055 c -69.43,61.547 -107.118,112.918 -107.461,113.39 0.519,0.707 84.687,115.559 234.027,207.825 10.855,6.707 22.176,12.886 33.84,18.578 4.984,2.433 10,4.668 15.031,6.726 58.418,-57.906 89.617,-100.476 89.981,-100.969 -0.629,-0.863 -95.575,-130.332 -265.418,-245.55 z"
         id="path68" />
    </clipPath>
    <linearGradient
       x1="0"
       y1="0"
       x2="1"
       y2="0"
       gradientUnits="userSpaceOnUse"
       gradientTransform="matrix(372.877,0,0,372.877,442.308,324.315)"
       spreadMethod="pad"
       id="linearGradient76">
      <stop
         style="stop-opacity:1;stop-color:#181e3a"
         offset="0"
         id="stop72" />
      <stop
         style="stop-opacity:1;stop-color:#29377a"
         offset="1"
         id="stop74" />
    </linearGradient>
    <clipPath
       clipPathUnits="userSpaceOnUse"
       id="clipPath86">
      <path
         d="m 442.309,264.445 c 0.519,0.707 84.683,115.559 234.027,207.825 10.855,6.707 22.176,12.886 33.836,18.578 4.961,2.422 9.949,4.64 14.953,6.691 C 673.402,548.836 600.566,612.055 508.57,668.891 312.305,790.148 0,779.648 0,779.648 V 13.5586 c 0,0 312.305,-10.50391 508.57,110.7614 14.235,8.793 27.879,17.766 41.203,26.805 -69.347,61.492 -107.117,112.848 -107.464,113.32 z"
         id="path84" />
    </clipPath>
    <linearGradient
       x1="0"
       y1="0"
       x2="1"
       y2="0"
       gradientUnits="userSpaceOnUse"
       gradientTransform="matrix(725.126,0,0,-725.126,0,396.604)"
       spreadMethod="pad"
       id="linearGradient96">
      <stop
         style="stop-opacity:1;stop-color:#316bbd"
         offset="0"
         id="stop88" />
      <stop
         style="stop-opacity:1;stop-color:#316bbd"
         offset="0.1"
         id="stop90" />
      <stop
         style="stop-opacity:1;stop-color:#55bdee"
         offset="0.9"
         id="stop92" />
      <stop
         style="stop-opacity:1;stop-color:#55bdee"
         offset="1"
         id="stop94" />
    </linearGradient>
  </defs>
  <sodipodi:namedview
     id="namedview4"
     pagecolor="#ffffff"
     bordercolor="#000000"
     borderopacity="0.25"
     inkscape:showpageshadow="2"
     inkscape:pageopacity="0.0"
     inkscape:pagecheckerboard="0"
     inkscape:deskcolor="#d1d1d1" />
  <g
     id="g8"
     inkscape:groupmode="layer"
     inkscape:label="ink_ext_XXXXXX"
     transform="matrix(1.3333333,0,0,-1.3333333,0,104)">
    <g
       id="g10"
       transform="scale(0.1)">
      <path
         d="m 1471.68,13.332 h 109.33 c 11.79,0 21.35,9.5586 21.35,21.3477 V 720.922 c 0,11.789 -9.56,21.348 -21.35,21.348 h -109.33 c -11.79,0 -21.34,-9.559 -21.34,-21.348 V 34.6797 c 0,-11.7891 9.55,-21.3477 21.34,-21.3477"
         style="fill:#181e3a;fill-opacity:1;fill-rule:nonzero;stroke:none"
         id="path12" />
      <path
         d="m 2057.1,540.488 c -272.54,0 -314.62,-153.367 -314.62,-235.945 V 28.8242 c 0,-8.6211 6.99,-15.6094 15.62,-15.6094 h 117.31 c 8.62,0 15.61,6.9883 15.61,15.6094 V 314.191 c 0,45.977 54.7,103.153 165.73,103.153 111.02,0 165.72,-57.176 165.72,-103.153 V 28.8242 c 0,-8.6211 6.99,-15.6094 15.61,-15.6094 h 117.32 c 8.62,0 15.61,6.9883 15.61,15.6094 V 304.543 c 0,74.219 -41.36,235.945 -313.91,235.945"
         style="fill:#181e3a;fill-opacity:1;fill-rule:nonzero;stroke:none"
         id="path14" />
      <path
         d="m 2883.91,442.379 6.41,69.812 c 0.83,9.094 -6.32,16.938 -15.46,16.938 h -177.15 v 56.805 c 0,35.093 19.6,76.933 113,76.933 26.55,0 53.8,-3.09 81.34,-9.191 8.6,-1.906 17.13,3.387 18.86,12.027 l 15.66,78.301 c 1.6,8.023 -3.32,16.031 -11.24,18.094 -45.65,11.886 -88.57,17.902 -127.89,17.902 -74.81,0 -134.03,-17.953 -175.99,-53.352 -41.91,-35.355 -62.28,-82.519 -62.28,-144.207 v -53.312 h -100.79 c -8.57,0 -15.52,-6.945 -15.52,-15.516 v -69.816 c 0,-8.574 6.95,-15.52 15.52,-15.52 h 100.79 V 28.7344 c 0,-8.5742 6.95,-15.5196 15.52,-15.5196 h 117.5 c 8.57,0 15.52,6.9454 15.52,15.5196 V 428.277 h 170.74 c 8.03,0 14.73,6.11 15.46,14.102"
         style="fill:#181e3a;fill-opacity:1;fill-rule:nonzero;stroke:none"
         id="path16" />
      <path
         d="m 3376.49,161.43 c -32.49,-27.082 -75.2,-40.809 -126.95,-40.809 -51.75,0 -94.26,13.527 -126.34,40.211 -32.82,27.266 -49.46,63.887 -49.46,108.844 0,44.894 16.61,81.691 49.38,109.351 32.13,27.121 74.65,40.868 126.42,40.868 51.73,0 94.43,-13.735 126.95,-40.817 33.2,-27.668 50.03,-64.473 50.03,-109.402 0,-44.176 -16.83,-80.598 -50.03,-108.246 z m 46.19,344.785 c -49.65,22.762 -107.9,34.301 -173.14,34.301 -65.25,0 -123.5,-11.539 -173.13,-34.293 -49.1,-22.532 -87.59,-54.434 -114.41,-94.836 -26.73,-40.278 -40.29,-87.957 -40.29,-141.711 0,-53.004 13.56,-100.289 40.3,-140.551 26.8,-40.418 65.3,-72.3242 114.4,-94.832 C 3125.99,11.5352 3184.23,0 3249.54,0 c 65.3,0 123.55,11.5352 173.14,34.3008 49.08,22.5 87.57,54.4062 114.41,94.8242 26.73,40.285 40.28,87.57 40.28,140.551 0,53.73 -13.55,101.41 -40.28,141.711 -26.84,40.402 -65.33,72.304 -114.41,94.828"
         style="fill:#181e3a;fill-opacity:1;fill-rule:nonzero;stroke:none"
         id="path18" />
      <path
         d="M 3821.2,28.8281 V 314.191 c 0,45.977 41.73,103.153 152.76,103.153 111.02,0 152.76,-57.176 152.76,-103.153 V 28.8281 c 0,-8.625 6.99,-15.6133 15.61,-15.6133 h 0.85 116.46 0.85 c 8.62,0 15.61,6.9883 15.61,15.6133 V 314.191 c 0,45.977 41.73,103.153 152.76,103.153 111.02,0 152.76,-57.176 152.76,-103.153 V 28.8281 c 0,-8.625 6.99,-15.6133 15.61,-15.6133 h 117.31 c 8.62,0 15.61,6.9883 15.61,15.6133 V 304.543 c 0,74.223 -28.39,235.945 -300.93,235.945 -113.33,0 -184.47,-26.554 -229.03,-63.472 -44.59,36.726 -115.04,63.472 -225.87,63.472 -272.55,0 -301.66,-153.367 -301.66,-235.945 V 28.8281 c 0,-8.625 6.99,-15.6133 15.62,-15.6133 h 117.31 c 8.62,0 15.61,6.9883 15.61,15.6133"
         style="fill:#181e3a;fill-opacity:1;fill-rule:nonzero;stroke:none"
         id="path20" />
      <path
         d="m 5231.91,183.129 c 0,0 -77.64,-73.223 -200.85,-72.641 -62.31,0.293 -74.61,25.996 -74.61,48.66 0,42.614 27.41,56.293 59.12,66.45 88.6,28.39 216.34,14.359 216.34,14.359 z m -266.58,125.832 c -31.76,-7.156 -146.64,-36.602 -146.64,-154.148 0,-110.8013 87.04,-150.71144 173.13,-150.71144 176.19,0 252.88,79.17974 252.88,79.17974 V 30.9258 c 0,-8.586 6.97,-15.543 15.55,-15.5352 l 104.67,0.0899 c 8.58,0.0078 15.52,6.957 15.52,15.5312 V 347.77 c 0,66.613 -22.51,116.097 -68.82,147.945 -47.21,32.449 -108.52,47.293 -182.24,47.293 -47.5,0 -97.89,-5.106 -149.75,-18.344 -42.02,-10.738 -81.05,-26.324 -116.41,-43.281 -7.6,-3.645 -10.72,-12.824 -7.2,-20.477 l 37.52,-81.414 c 3.59,-7.789 12.87,-11.332 20.59,-7.605 22.99,11.09 49.82,22.812 80.13,31.804 42.93,12.7 82.12,17.532 116.51,17.532 101.13,0 121.14,-52.231 121.14,-79.985 v -12.89 c 0,0 -136.64,9.898 -266.58,-19.387"
         style="fill:#181e3a;fill-opacity:1;fill-rule:nonzero;stroke:none"
         id="path22" />
      <g
         id="g24">
        <g
           id="g26"
           clip-path="url(#clipPath30)">
          <path
             d="m 725.125,497.539 c 58.293,-57.809 89.699,-100.441 90.059,-100.934 -0.629,-0.863 -95.621,-130.277 -265.411,-245.48 34.579,-30.664 76.872,-63.8008 126.563,-94.5039 10.855,-6.707 22.176,-12.8867 33.84,-18.5781 163.746,-79.9258 354.334,44.1914 354.334,226.402 0,176.696 -179.213,298.739 -339.385,233.094"
             style="fill:url(#linearGradient40);fill-opacity:1;fill-rule:nonzero;stroke:none"
             id="path42" />
        </g>
      </g>
      <g
         id="g44">
        <g
           id="g46"
           clip-path="url(#clipPath50)">
          <path
             d="m 903.672,604.047 c 0,48.871 -39.617,88.488 -88.488,88.488 -48.868,0 -88.485,-39.617 -88.485,-88.488 0,-48.867 39.617,-88.484 88.485,-88.484 48.871,0 88.488,39.617 88.488,88.484"
             style="fill:url(#linearGradient60);fill-opacity:1;fill-rule:nonzero;stroke:none"
             id="path62" />
        </g>
      </g>
      <g
         id="g64">
        <g
           id="g66"
           clip-path="url(#clipPath70)">
          <path
             d="m 549.77,151.055 c -69.43,61.547 -107.118,112.918 -107.461,113.39 0.519,0.707 84.687,115.559 234.027,207.825 10.855,6.707 22.176,12.886 33.84,18.578 4.984,2.433 10,4.668 15.031,6.726 58.418,-57.906 89.617,-100.476 89.981,-100.969 -0.629,-0.863 -95.575,-130.332 -265.418,-245.55"
             style="fill:url(#linearGradient76);fill-opacity:1;fill-rule:nonzero;stroke:none"
             id="path78" />
        </g>
      </g>
      <g
         id="g80">
        <g
           id="g82"
           clip-path="url(#clipPath86)">
          <path
             d="m 442.309,264.445 c 0.519,0.707 84.683,115.559 234.027,207.825 10.855,6.707 22.176,12.886 33.836,18.578 4.961,2.422 9.949,4.64 14.953,6.691 C 673.402,548.836 600.566,612.055 508.57,668.891 312.305,790.148 0,779.648 0,779.648 V 13.5586 c 0,0 312.305,-10.50391 508.57,110.7614 14.235,8.793 27.879,17.766 41.203,26.805 -69.347,61.492 -107.117,112.848 -107.464,113.32"
             style="fill:url(#linearGradient96);fill-opacity:1;fill-rule:nonzero;stroke:none"
             id="path98" />
        </g>
      </g>
    </g>
  </g>
</svg>
