<?xml version="1.0" encoding="UTF-8"?>
<svg width="580" height="580" version="1.1" viewBox="0 0 580 580" xml:space="preserve" xmlns="http://www.w3.org/2000/svg" xmlns:cc="http://creativecommons.org/ns#" xmlns:dc="http://purl.org/dc/elements/1.1/" xmlns:rdf="http://www.w3.org/1999/02/22-rdf-syntax-ns#"><metadata><rdf:RDF><cc:Work rdf:about=""><dc:format>image/svg+xml</dc:format><dc:type rdf:resource="http://purl.org/dc/dcmitype/StillImage"/></cc:Work></rdf:RDF></metadata><defs>
	<linearGradient id="linearGradient7621" x1="301.34" x2="301.54" y1="276.43" y2="320.07" gradientTransform="translate(-7.9998 -12.399)" gradientUnits="userSpaceOnUse"><stop stop-color="#01434b" offset="0"/><stop stop-color="#016065" offset="1"/></linearGradient></defs><g transform="translate(-9.9998,-10.399)"><path d="m300.1 393.32-283.16-120.47c0.8045-3.2535 2.1085-2.4903 2.1085-2.4903s217.76-144.24 249.92-163.76c39.428 14.337 261.14 73.141 309.47 113.23 1.9225 1.5947-35.018-10.312 3.8116 4.8212z" stroke-width="1.9913"/><path d="m291.56 219.98-25.689 0.80273-21.676 4.0156s-12.063 5.0453-19.076 9.1406h-3.7305c-0.0254 0-0.0469 0.0215-0.0469 0.0469v2.4824c-0.14171 0.12324-0.31294 0.25434-0.42969 0.37109h0.42969v46.83c0 0.0254 0.0215 0.0449 0.0469 0.0449h153.25c0.0254 0 0.0449-0.0196 0.0449-0.0449v-49.684c0-0.0254-0.0196-0.0469-0.0449-0.0469h-9.7168l-12.344-6.7324-26.494-5.6211z" fill="#1a1a1a" stroke-width=".133"/><path d="m268.75 93.631-251.01 160.52-0.8 18.699 252.09-165.29 313.22 117.09-0.40235-16.479z" fill="#59adb5" stroke-width="1.9913"/></g><path d="m289.97 253.04s-103.58-1.1049-130.93 37.565c-31.672 44.789-34.654 92.541-37.215 103.13-1.2801 5.2955 86.324 34.778 171.76 33.659 85.439-1.1197 168.71-32.842 168.71-32.842s-6.3301-70.803-46.381-111.96c-28.912-29.709-125.95-29.555-125.95-29.555z" fill="url(#linearGradient7621)"/><g transform="matrix(-1,0,0,1,594.99,-10.399)"><path d="m376.59 155.1s8.7215 56.71-25.662 99.686-45.482 66.858-41.062 116.3c24.95-24.95 43.67-83.443 43.67-83.443s24.54-10.144 58.201-44.137c0 0-0.45448-25.487-8.0042-46.5-7.5497-21.013-27.143-41.905-27.143-41.905z" fill="#d44218"/><g transform="matrix(-1.9057,0,0,1.9057,1103.1,-65.04)" fill="#59adb5">
		<path d="m402.1 192.8"/>
		<path d="m393.63 185.31c-1.4822-0.39477-14.045-8.0832-15.482-9.2488-12-10-15.346-14.161-15.346-14.161s-1.3309-11.829 4.1815-24.375c0.8 18.2 13.647 35.985 26.647 47.785z"/>
	</g></g><g transform="translate(-9.9998,-10.399)"><path d="m376.59 155.1s8.7215 56.71-25.662 99.686-45.06 67.563-40.64 117c24.95-24.95 43.248-84.149 43.248-84.149s24.54-10.144 58.201-44.137c0 0-0.45448-25.487-8.0042-46.5-7.5497-21.013-27.143-41.905-27.143-41.905z" fill="#d44218"/><g transform="matrix(-1.9057,0,0,1.9057,1103.1,-65.04)" fill="#59adb5">
		<path d="m402.1 192.8"/>
		<path d="m393.63 185.31c-1.4822-0.39477-14.045-8.0832-15.482-9.2488-12-10-15.346-14.161-15.346-14.161s-1.3199-11.859 4.1925-24.405c0.8 18.2 13.636 36.015 26.636 47.815z"/>
	</g></g><path d="m285.59 368.78c-1.394 128.84-139.79 134.01-141.78 1.5931 1.1948-135.01 137.4-136.6 141.78-1.5931z" fill="#59adb5" stroke-width="1.9913"/><path d="m441.51 370.77c-1.394 128.84-139.79 134.01-141.78 1.593 1.3939-135.01 137.4-136.6 141.78-1.593z" fill="#59adb5" stroke-width="1.9913"/><path d="m215.89 287.67c-12.754-0.20032-25.684 4.4415-34.738 13.639-19.365 17.291-25.069 44.364-26.961 69.207-0.71296 5.5099-0.43822 10.133-6.2227 12.141-14.217 4.5664-28.382 8.2525-42.992 12.516-10.4 1.297-10.511 10.57-9.8008 13.08 2.4006 7.7642 2.8169 16.514 9.2187 22.291 14.071 19.005 33.661 33.896 56.057 41.68 19.868 8.069 42.161 8.1462 62.805 3.1562 9.1592-2.9186-1.5113 3.3946-4.6797 4.9199-6.2162 2.7892-12.647 5.0595-19.336 6.4082 14.271 7.1436 28.661 10.081 46.311 8.2715s34.43-8.8654 46.467-17.404c14.313 8.7121 30.768 15.512 46.467 17.404s32.04-1.1279 46.311-8.2715c-6.6888-1.3487-13.12-3.619-19.336-6.4082-3.1684-1.5253-13.839-7.8386-4.6797-4.9199 20.644 4.99 42.937 4.9127 62.805-3.1562 22.396-7.7839 41.986-22.675 56.057-41.68 6.4019-5.7766 6.8182-14.527 9.2188-22.291 0.31228-2.4656 0.0687-10.369-9.8008-13.08-14.61-4.2631-28.775-7.9493-42.992-12.516-5.7844-2.0074-5.5097-6.6307-6.2227-12.141-1.8924-24.843-7.5958-51.916-26.961-69.207-9.0547-9.1972-21.985-13.839-34.738-13.639-7.6522 0.1202-15.241 1.9828-21.891 5.6504-18.53 8.8295-29.988 28.046-34.555 47.521-3.1466 10.068-3.9737 18.378-2.6934 30.895s2.5864 29.284 2.8906 44.008c-6.1381 2.0995-12.566 3.1925-18.834 4.8398-0.3529 0.18199-0.69594 0.25191-1.0449 0.38672-0.34898-0.13481-0.69202-0.20473-1.0449-0.38672-6.2676-1.6474-12.696-2.7403-18.834-4.8398 0.30422-14.724 1.6103-31.491 2.8906-44.008s1.1655-16.114-2.6934-30.895-16.024-38.692-34.555-47.521c-6.6497-3.6676-14.238-5.5302-21.891-5.6504z" fill="#add8db"/><g transform="translate(-9.9998,-10.399)"><path d="m276.69 374.92c-2.7878 79.651-103.35 78.257-103.15-1.7922 2.9869-79.452 103.55-78.257 103.15 1.7922z" stroke-width="1.9913"/><path d="m269.92 374.92c-2.3895 68.699-89.807 67.504-89.608-1.3939 2.5887-68.898 89.807-67.703 89.608 1.3939z" fill="#fff" stroke-width="1.9913"/><path d="m252.85 374.84c-1.7922 49.676-56.353 49.136-55.955-0.89992 1.7922-49.676 56.154-48.956 55.955 0.89992z" stroke-width="1.8931"/><circle cx="207.95" cy="365.09" r="11" fill="#fff" stroke-width=".16956"/><g transform="matrix(-1 0 0 1 760.79 0)"><path d="m431.97 375c-2.7878 79.651-103.35 78.257-103.15-1.7922 2.9869-79.651 103.55-78.257 103.15 1.7922z" stroke-width="1.9913"/><path d="m425.2 374.8c-2.3895 68.699-89.807 67.504-89.608-1.3939 2.5887-68.699 90.006-67.703 89.608 1.3939z" fill="#fff" stroke-width="1.9913"/><path d="m409.04 375.43c-1.7922 48.172-56.353 47.648-55.955-0.87267 1.7922-48.172 56.353-47.648 55.955 0.87267z" stroke-width="1.8643"/><circle cx="398.02" cy="363.85" r="11" fill="#fff" stroke-width=".16956"/></g></g><g transform="matrix(1.9913,0,0,1.9913,-535.41,-90.808)">
		<path d="m429.4 243c-0.3-1.5-1.8-2.4-3.5-2.2s-2.2-0.3-4.6-4c-1.8-2.8-9.6-2.8-11.4 0-3.4 7-6 1.4-8.1 6.1-2 4.9 6.5 23.9 13.9 26.2 7.3-2.4 15.7-21.2 13.7-26.1z"/>
		
		<path d="m405.9 243.2c-3.2 5.2 3.6 19.7 6.1 23.5-1.7-0.4-12.8-22.1-6.1-23.5z" fill="#fff"/>
	</g><path d="m79.492 462.57c6.1729-1.3939 11.35-3.3852 15.532-5.5756-10.952-27.679-5.7747-42.016-5.7747-42.016 1.3939 17.324 5.5755 30.666 9.9564 40.025 9.3589-5.1774 13.541-10.554 13.541-10.554-19.913-20.709-4.9783-48.189-20.311-60.734 20.311-40.224-50.977-42.812-33.653-1.1946-23.298 2.3894-20.908 70.093-21.108 76.863 0 0 4.5799 3.186 13.342 4.779-3.9827-12.943-0.58-42.812 3.2035-52.57 1.5929 32.259 3.5668 47.193 7.151 53.366 3.9827 0 8.3635-0.3981 13.342-1.1946-6.9695-24.294-3.3764-31.263-3.3764-31.263 3.5843 11.948 5.1685 22.103 8.155 30.068z" fill="#d44218" stroke-width="1.9913"/><path d="m72.409 213.53c2.6883-6.2383 17.887-16.506 20.091-12.78s-8.5 165.25-8.5 165.25l-18 0.25s3.7207-146.48 6.409-152.72z" fill="#d44218"/></svg>
